# xmcd
#
# Track frame offsets:
#	150
#	23151
#	44171
#	69755
#	86541
#	114760
#	140607
#	159973
#	182443
#	232291
#	256372
#
# Disc length: 3891 seconds
#
# Revision: 1
# Processed by: cddbd v1.5.2PL0 Copyright (c) Steve Scherf et al.
# Submitted via: EasyCDDAExtractor 16.0.4.1
#
DISCID=8b0f310b
DTITLE=Cẩm Ly - Tuyet Pham Tru Tinh_Bien Tinh
DYEAR=2009
DGENRE=Pop
TTITLE0=Cẩm Ly - Biển Tình
TTITLE1=Cẩm Ly - Ngày Buồn
TTITLE2=Cẩm Ly - Cánh Thiệp Đầu Xuân
TTITLE3=Cẩm Ly - Gái Xuân
TTITLE4=Cẩm Ly, Quang Linh - Kỉ Niệm Nào Buồn
TTITLE5=Cẩm Ly - Người Phương Xa
TTITLE6=Cẩm Ly, Đan Trường - Duyên Kiếp
TTITLE7=Cẩm Ly - Giáng Hương
TTITLE8=Cẩm Ly, Hương Lan - Ru Lại Câu Hò
TTITLE9=Cẩm Ly - Lý Mười Thương
TTITLE10=Cẩm Ly, Đàm Vĩnh Hưng - Tình Chàng Ý Thiếp
EXTD=
EXTT0=
EXTT1=
EXTT2=
EXTT3=
EXTT4=
EXTT5=
EXTT6=
EXTT7=
EXTT8=
EXTT9=
EXTT10=
PLAYORDER=
